<svg width="110" height="110" viewBox="0 0 110 110" fill="none" xmlns="http://www.w3.org/2000/svg">
<path d="M9.39539 70.0274L9.50999 70.7974L9.62915 70.7699C10.4436 74.5785 12.3197 78.0787 15.0405 80.8654C17.7613 83.6522 21.2155 85.6116 25.0035 86.517C28.7915 87.4224 32.7584 87.2367 36.4453 85.9815C40.1322 84.7263 43.3883 82.4529 45.8369 79.4242C48.2856 76.3956 49.8266 72.7355 50.2818 68.8675C50.737 64.9995 50.0877 61.0817 48.409 57.5673C46.7304 54.053 44.0909 51.0858 40.7962 49.009C37.5014 46.9322 33.6859 45.8307 29.7912 45.832C28.7691 45.832 27.7883 45.9879 26.8121 46.1299C27.1283 45.0666 27.4537 43.9849 27.9762 43.0133C28.4987 41.6016 29.3146 40.3779 30.1258 39.1449C30.8041 37.8112 32.0004 36.9083 32.8804 35.767C33.8017 34.6579 35.0575 33.9199 36.0521 32.9987C37.0283 32.0362 38.3071 31.5549 39.3246 30.8766C40.3879 30.267 41.3137 29.5933 42.3037 29.2724L44.7741 28.255L46.9466 27.352L44.7283 18.4649L41.9921 19.1249C41.1166 19.3449 40.0487 19.6016 38.8341 19.9087C37.5921 20.1379 36.2675 20.7658 34.7916 21.3387C33.3387 21.9941 31.6475 22.4295 30.08 23.4791C28.5033 24.4783 26.6837 25.3124 25.0796 26.6508C23.5258 28.0304 21.6512 29.2266 20.2671 30.9775C18.7546 32.6183 17.2604 34.3416 16.1008 36.3033C14.7579 38.1733 13.8458 40.2266 12.8833 42.257C12.0125 44.2874 11.3112 46.3637 10.7383 48.3804C9.65207 52.4229 9.16623 56.2637 8.97832 59.5499C8.82248 62.8408 8.91415 65.577 9.10665 67.557C9.17093 68.3839 9.26725 69.208 9.39539 70.0274ZM59.8121 70.0274L59.9266 70.7974L60.0458 70.7699C60.8602 74.5785 62.7364 78.0787 65.4572 80.8654C68.178 83.6522 71.6322 85.6116 75.4202 86.517C79.2081 87.4224 83.1751 87.2367 86.862 85.9815C90.5488 84.7263 93.805 82.4529 96.2536 79.4242C98.7022 76.3956 100.243 72.7355 100.698 68.8675C101.154 64.9995 100.504 61.0817 98.8257 57.5673C97.147 54.053 94.5076 51.0858 91.2128 49.009C87.918 46.9322 84.1026 45.8307 80.2079 45.832C79.1858 45.832 78.205 45.9879 77.2287 46.1299C77.545 45.0666 77.8704 43.9849 78.3929 43.0133C78.9154 41.6016 79.7312 40.3779 80.5425 39.1449C81.2208 37.8112 82.4171 36.9083 83.2971 35.767C84.2183 34.6579 85.4741 33.9199 86.4687 32.9987C87.445 32.0362 88.7237 31.5549 89.7412 30.8766C90.8046 30.267 91.7304 29.5933 92.7204 29.2724L95.1908 28.255C96.5704 27.6912 97.3587 27.3612 97.3587 27.3612L95.1404 18.4741L92.4041 19.1341C91.5287 19.3541 90.4608 19.6108 89.2462 19.9179C88.0041 20.147 86.6796 20.7749 85.2037 21.3479C83.7508 22.0033 82.0596 22.4387 80.4921 23.4883C78.9154 24.4874 77.0958 25.3216 75.4916 26.6599C73.9379 28.0395 72.0633 29.2358 70.6791 30.9866C69.1666 32.6274 67.6725 34.3508 66.5129 36.3124C65.17 38.1824 64.2579 40.2358 63.2954 42.2662C62.4246 44.2966 61.7233 46.3729 61.1504 48.3895C60.0641 52.432 59.5783 56.2729 59.3904 59.5591C59.2346 62.8499 59.3262 65.5862 59.5187 67.5662C59.5887 68.3897 59.6866 69.2106 59.8121 70.0274Z" fill="#4B3E48"/>
</svg>
